<?xml version="1.0" encoding="UTF-8" standalone="no"?>
<svg
   version="1.0"
   width="369.000000pt"
   height="366.000000pt"
   viewBox="0 0 369.000000 366.000000"
   preserveAspectRatio="xMidYMid meet"
   id="svg4"
   sodipodi:docname="logo_px_solo_bn.2.1.svg"
   inkscape:version="1.4.2 (f4327f4, 2025-05-13)"
   xmlns:inkscape="http://www.inkscape.org/namespaces/inkscape"
   xmlns:sodipodi="http://sodipodi.sourceforge.net/DTD/sodipodi-0.dtd"
   xmlns="http://www.w3.org/2000/svg"
   xmlns:svg="http://www.w3.org/2000/svg">
  <defs
     id="defs4" />
  <sodipodi:namedview
     id="namedview4"
     pagecolor="#505050"
     bordercolor="#ffffff"
     borderopacity="1"
     inkscape:showpageshadow="0"
     inkscape:pageopacity="0"
     inkscape:pagecheckerboard="1"
     inkscape:deskcolor="#505050"
     inkscape:document-units="pt"
     inkscape:zoom="1.1693344"
     inkscape:cx="178.73416"
     inkscape:cy="287.77055"
     inkscape:window-width="1920"
     inkscape:window-height="1009"
     inkscape:window-x="1912"
     inkscape:window-y="-8"
     inkscape:window-maximized="1"
     inkscape:current-layer="svg4" />
  <path
     style="fill:#00b8fc;stroke-width:0.0755886"
     d=""
     id="path9"
     transform="scale(0.75)" />
  <ellipse
     style="fill:#00b8fc;stroke-width:0.75"
     id="path17"
     cx="196.38576"
     cy="89.754593"
     rx="2.7259097"
     ry="3.0466051" />
  <ellipse
     style="fill:#00b8fc;stroke-width:0.75"
     id="path18"
     cx="258.73978"
     cy="124.04089"
     rx="2.9479554"
     ry="3.6282527" />
  <ellipse
     style="fill:#00b8fc;stroke-width:0.75"
     id="path19"
     cx="257.8327"
     cy="243.88663"
     rx="2.9479554"
     ry="3.0613382" />
  <ellipse
     style="fill:#00b8fc;stroke-width:0.75"
     id="path20"
     cx="196.8894"
     cy="281.7565"
     rx="2.381041"
     ry="2.6078067" />
  <path
     style="fill:#00b8fc;stroke-width:0.907065"
     d="m 165.76419,364.15195 c -11.38549,-0.47533 -16.56546,-1.13494 -24.03718,-3.06079 -35.64512,-9.18764 -61.127035,-23.04474 -85.169655,-46.31538 -29.29485,-28.35422 -46.10211,-58.47411 -54.6959501,-98.0193 -0.83279,-3.83215 -1.18113,-13.896 -1.17736,-34.01487 0.006,-32.78127 0.31003,-35.01597 7.8324001,-57.5985 10.5052,-31.537118 25.52801,-54.47093 51.69301,-78.914502 19.8687,-18.561509 46.897545,-33.167176 75.346795,-40.7153971 18.70722,-4.963442 23.36777,-5.509646 45.63472,-5.348261 23.17235,0.167947 32.97006,1.101801 45.92928,4.377679 33.6896,8.5161781 63.7028,25.8911341 87.94389,50.9116301 30.25518,31.227965 47.6159,70.177101 50.7122,113.773881 0.95503,13.44705 0.11094,33.46449 -1.88941,44.80716 -11.15354,63.24461 -54.45592,115.79047 -115.07135,139.63494 -11.48922,4.51956 -30.95241,9.4179 -39.67422,9.9849 -14.13019,0.9186 -29.15325,1.09067 -43.37717,0.49681 z m 33.97982,-73.90522 c 3.31054,-1.71195 6.38547,-5.60422 6.3811,-8.07726 -0.0108,-6.09349 -8.37947,-11.50942 -13.39525,-8.66893 -1.27034,0.71939 -3.08208,2.80179 -4.02609,4.62754 -1.57349,3.04314 -1.60379,3.58908 -0.364,6.55635 1.17711,2.81721 5.94877,6.8914 8.08284,6.90138 0.39894,0.002 1.89357,-0.60072 3.3214,-1.33908 z m -37.40667,-6.55263 c 1.2104,-1.82617 1.13577,-2.18847 -0.86245,-4.18669 -1.78164,-1.78163 -3.5221,-2.3122 -9.38034,-2.85947 -3.95605,-0.36957 -8.29504,-1.24077 -9.6422,-1.93599 -1.34716,-0.6952 -3.66089,-1.26402 -5.14163,-1.26402 -1.48074,0 -7.31755,-2.30446 -12.97069,-5.12103 -9.63492,-4.80041 -10.96181,-5.80846 -21.19299,-16.10037 -6.002995,-6.03864 -12.915155,-14.00454 -15.360335,-17.70201 -4.86241,-7.35267 -11.29613,-21.84412 -11.34035,-25.54326 -0.0153,-1.28305 -0.69206,-4.28205 -1.50382,-6.66444 -1.80842,-5.30744 -1.3396,-23.61123 0.93119,-36.35587 2.21893,-12.4535 11.45697,-30.11777 22.688305,-43.38282 7.08849,-8.37203 26.76573,-20.70491 37.98456,-23.80716 2.59979,-0.718895 8.19641,-1.943683 12.43692,-2.721755 10.57055,-1.939523 12.70485,-3.330885 14.5415,-9.479648 2.99949,-10.041675 5.78269,-13.174321 15.76508,-17.744412 4.4146,-2.021071 6.1445,-2.342053 10.49583,-1.947489 9.11027,0.826091 13.89743,3.843537 23.4349,14.771481 1.64578,1.885718 2.63262,2.290343 4.53532,1.859573 1.33751,-0.302813 6.14047,-0.809168 10.67325,-1.125225 l 8.24142,-0.574658 4.66203,3.139598 c 2.56412,1.726777 6.07181,4.98591 7.79484,7.242502 l 3.1328,4.102898 8.66786,0.609292 c 4.76731,0.335108 9.79636,1.020773 11.17564,1.523692 1.37928,0.502931 4.95686,3.588881 7.95017,6.857701 l 5.44237,5.94329 5.89592,0.50607 c 7.14767,0.61353 11.30687,2.57792 15.65991,7.39622 6.51554,7.21193 6.37671,14.6913 -0.40089,21.59717 l -3.84492,3.91769 h -19.13159 c -13.6707,0 -19.44228,-0.3107 -20.22006,-1.08848 -1.84455,-1.84455 -1.21825,-5.44575 2.08904,-12.01194 1.74457,-3.46358 3.17193,-7.25235 3.17193,-8.41945 0,-3.40799 -2.37882,-8.14706 -4.92784,-9.81724 -3.51601,-2.30378 -10.81908,-1.40262 -13.94209,1.72039 -3.5371,3.53711 -3.30818,10.07183 0.61396,17.52636 2.33661,4.44098 2.82485,6.23802 2.36328,8.69838 l -0.58176,3.10102 -34.8206,0.61095 c -19.15133,0.33601 -35.85351,1.00365 -37.11594,1.48362 -1.75749,0.66819 -2.29533,1.51557 -2.29533,3.61632 0,2.36932 0.34032,2.75436 2.49443,2.82216 1.37193,0.0432 17.68665,0.3573 36.25493,0.69805 22.59175,0.41459 34.09114,0.95018 34.75995,1.619 1.06968,1.06967 1.42908,17.30283 0.40575,18.32651 -0.32654,0.32665 -19.70178,0.79799 -43.05607,1.04743 -40.13068,0.42863 -42.56716,0.54843 -44.37071,2.18148 -1.0496,0.95037 -1.90835,2.63515 -1.90835,3.74395 0,4.22245 2.95884,4.19235 32.43999,4.20205 38.58327,0.0127 63.26936,1.58902 65.00685,-0.16421 0.95335,-0.96198 1.48926,-4.45258 1.87782,-12.23092 0.82913,-16.59779 0.81273,-16.53908 4.78784,-17.14309 1.85597,-0.28202 11.51642,-0.9592 21.46768,-1.50488 19.69886,-1.08017 20.77175,-1.36475 26.01889,-6.90181 6.16066,-6.50103 7.43151,-11.01799 5.77834,-20.53784 -0.63713,-3.66902 -1.79782,-7.9074 -2.5793,-9.41863 -2.57032,-4.97045 -15.1876,-13.88409 -19.65297,-13.88409 -4.27527,0 -8.56852,-2.18778 -14.99939,-7.643471 -6.47802,-5.495707 -12.26369,-7.776592 -19.72596,-7.776592 -4.11671,0 -4.8749,-0.370065 -9.5863,-4.67895 -2.81382,-2.573423 -7.5651,-5.838533 -10.5584,-7.255793 -4.88684,-2.313804 -6.39974,-2.576913 -14.82118,-2.577556 l -9.37881,-7.16e-4 -5.1342,-4.578118 c -2.82382,-2.517966 -7.37919,-5.681348 -10.12306,-7.02974 -4.50364,-2.213182 -5.95926,-2.451621 -14.96655,-2.451621 -9.46848,0 -10.26186,0.148517 -15.54598,2.910099 -6.96193,3.638446 -12.31268,8.98768 -16.59647,16.59176 l -3.32148,5.895907 -5.46349,0.67851 c -3.00493,0.373185 -10.1984,2.26092 -15.98549,4.194968 -8.59863,2.873662 -12.61477,4.88727 -21.97068,11.015633 -9.80171,6.42037 -12.589855,8.82101 -19.381315,16.68764 -11.31489,13.10615 -20.10769,28.55365 -23.25877,40.8618 -2.29385,8.95977 -3.70993,33.925 -2.42743,42.79518 3.21701,22.24991 10.9865,37.73866 29.17124,58.15381 6.970395,7.82535 9.008105,9.48004 17.765335,14.42604 9.33173,5.27045 23.46735,11.40271 28.48665,12.35797 1.24722,0.23737 6.5048,0.37868 11.68352,0.31403 8.63287,-0.10777 9.52605,-0.2838 10.74094,-2.11674 z m 27.26219,-10.75113 c 2.98006,-2.08731 2.57236,-6.65685 -0.70523,-7.90452 -0.74833,-0.28486 0.68029,-0.55572 3.17472,-0.60192 6.36537,-0.1179 8.24517,-0.78908 9.41776,-3.36266 2.07458,-4.5532 -2.36033,-7.45963 -11.68542,-7.65807 -4.05231,-0.0862 -4.06064,-0.093 -1.15477,-0.93263 4.65916,-1.34627 6.05299,-6.1205 2.21847,-7.59889 -0.83447,-0.32173 -5.59901,-0.78634 -10.58786,-1.03246 -9.88278,-0.48756 -13.38889,0.47727 -13.87265,3.81757 -0.48696,3.36237 2.78536,5.10746 10.90476,5.81535 4.12676,0.35979 6.59421,0.71283 5.48322,0.78452 -1.11099,0.0717 -2.67892,1.13602 -3.4843,2.36518 -1.30362,1.98957 -1.31848,2.52716 -0.13542,4.89864 l 1.32887,2.66381 -4.78242,0.59753 c -5.4922,0.6862 -8.1961,2.90065 -7.23587,5.92606 0.86547,2.72688 3.45625,3.51099 11.81874,3.57702 5.1977,0.041 7.85836,-0.34658 9.2974,-1.35453 z m -31.56484,-0.68006 c 3.54379,-1.21594 5.17638,-4.37842 4.22243,-8.17925 -0.44939,-1.7905 -1.45822,-2.59553 -4.16648,-3.32479 -4.11253,-1.10738 -6.62159,-4.12552 -8.15081,-9.80458 -1.56066,-5.7959 -4.97367,-9.00582 -12.29461,-11.56308 -8.0279,-2.8042 -11.15245,-2.79567 -15.33377,0.0418 -4.98527,3.3831 -6.99067,2.97679 -11.82023,-2.39486 -3.96571,-4.41082 -4.11577,-4.76584 -2.77971,-6.57621 4.51522,-6.11813 5.02823,-10.89889 2.16609,-20.18616 -3.65429,-11.85772 -5.275,-13.72242 -13.307715,-15.31096 -4.19765,-0.83014 -5.78613,-3.63584 -5.05957,-8.93664 0.68628,-5.00694 3.27081,-8.72841 6.06321,-8.7304 1.086265,-7.5e-4 3.360975,-0.71509 5.054885,-1.58736 2.69298,-1.38674 3.46205,-2.65392 6.12268,-10.08808 3.70664,-10.35688 3.8463,-14.45818 0.67654,-19.86697 -2.68992,-4.59 -2.40649,-5.96909 2.49996,-12.16399 2.95073,-3.72558 6.03405,-4.50374 8.07954,-2.03907 1.85586,2.23618 5.93765,4.02197 9.19303,4.02197 1.77089,0 6.41012,-1.751 11.41536,-4.30855 l 8.43204,-4.30855 1.43131,-4.98885 c 1.53299,-5.34322 3.98041,-8.68687 7.03845,-9.61585 4.93185,-1.49823 6.64152,-6.49172 3.48478,-10.17815 -1.61416,-1.88501 -5.60108,-2.46862 -14.51301,-2.1244 -3.03361,0.11716 -3.85502,0.49243 -3.85502,1.76118 0,0.88677 -0.6307,2.51276 -1.40155,3.61332 -0.77086,1.10055 -1.64901,4.09029 -1.95144,6.64386 -0.59142,4.99358 -2.55051,7.61579 -6.21291,8.3159 -2.2003,0.42062 -6.12239,-1.19757 -12.65715,-5.22212 -1.99554,-1.22899 -4.29094,-2.24124 -5.1009,-2.24945 -1.98828,-0.0202 -19.794465,17.79679 -22.282395,22.29585 l -1.98554,3.59055 4.44267,8.96581 c 2.44347,4.9312 4.219735,9.32654 3.947255,9.76742 -0.27249,0.44088 -2.537335,2.41564 -5.033015,4.38835 -3.4427,2.7213 -5.35157,3.58677 -7.91102,3.58677 -6.33352,0 -6.56503,0.56824 -7.04247,17.28607 -0.23427,8.20307 -0.0831,16.75147 0.33599,18.99645 0.71513,3.83108 0.98346,4.12937 4.36855,4.85639 8.696,1.86762 11.43028,3.36288 13.14237,7.18695 1.837785,4.10483 1.740425,4.56305 -2.45181,11.54031 -3.66879,6.10609 -3.75257,8.67254 -0.43228,13.24308 3.03856,4.18277 14.091795,16.4712 16.829955,18.71072 3.58472,2.93192 8.96384,1.96123 14.45786,-2.60901 3.21996,-2.67855 8.91163,-2.9026 11.36678,-0.44744 1.07606,1.07606 2.04373,4.10962 2.6764,8.39033 1.2707,8.59766 3.42135,10.81161 10.4285,10.73547 2.59132,-0.0281 6.13137,-0.53839 7.86677,-1.13383 z m 105.0235,-19.86193 c 1.62769,-0.98547 3.36244,-2.54481 3.85501,-3.46519 1.17558,-2.19659 1.15054,-10.50621 -0.0384,-12.72769 -1.40271,-2.62099 -5.72691,-4.48507 -10.40425,-4.48507 -3.55121,0 -4.66477,0.47877 -7.48577,3.21849 -2.72904,2.65041 -3.88112,3.17074 -6.52717,2.94796 -3.86262,-0.32522 -4.31247,-1.69096 -4.47463,-13.58493 -0.0762,-5.5873 -0.49285,-8.25755 -1.43568,-9.20039 -2.75557,-2.75557 -54.76429,-3.37067 -57.99919,-0.68594 -1.98712,1.64916 -1.81075,3.99438 0.45458,6.04446 1.73473,1.56991 3.85759,1.74885 24.37163,2.05436 12.35927,0.18406 23.02793,0.67861 23.70813,1.099 0.8607,0.53193 1.37954,3.61806 1.70643,10.14992 0.66853,13.35881 2.91198,16.12654 12.04637,14.86148 3.36145,-0.46555 4.58271,-0.0854 9.73931,3.03128 6.27528,3.79289 7.34035,3.85621 12.48359,0.74226 z M 160.57351,216.70506 c 2.26481,-1.58635 2.71792,-6.20765 0.84921,-8.66125 -0.60998,-0.8009 -3.43237,-2.94237 -6.27196,-4.75885 -11.53809,-7.38082 -13.88091,-16.74609 -6.5809,-26.30662 2.25555,-2.954 4.23035,-4.46982 6.8431,-5.25261 4.58662,-1.37419 6.26944,-3.71217 6.26944,-8.71026 0,-5.33278 -2.4112,-6.29234 -10.25488,-4.08098 -4.33571,1.22236 -6.58369,2.53919 -9.84465,5.76682 -9.25517,8.92221 -12.05762,24.84762 -6.30894,36.44922 3.65298,7.27445 6.12867,9.97297 12.12627,13.2178 7.39326,3.9999 10.11062,4.48192 13.17331,2.33673 z m 126.05684,-9.99939 c 2.33798,-2.43869 2.94796,-3.83779 2.94796,-6.76158 0,-4.94583 -1.98437,-8.48256 -5.76627,-10.27719 -4.52669,-2.14806 -7.77716,-2.02745 -11.77745,0.15842 l -4.13422,3.45544 -50.98306,0.21843 c -27.63617,0.11841 -50.96389,0.18339 -51.84125,0.55632 -1.97929,0.84129 -3.06348,4.80026 -1.84606,6.741 1.45467,2.31894 5.64465,1.60984 54.63745,1.92417 l 49.3254,0.31647 3.73596,4.69825 c 3.10894,3.90973 7.58002,3.13702 10.48593,2.52378 1.24721,-0.2632 3.59424,-1.86228 5.21561,-3.55352 z m -87.04686,-71.13134 c 0.92727,-1.73716 1.12217,-6.23496 0.83311,-19.22626 l -0.37733,-16.9586 2.76706,-3.356943 c 4.39308,-5.32956 2.90438,-13.175205 -3.08797,-16.273965 -3.01656,-1.559933 -5.33564,-1.17456 -9.16735,1.523362 -4.31651,3.039285 -4.48268,11.054895 -0.33145,15.988343 1.96202,2.331733 2.07732,2.955533 1.25712,6.801203 -0.49666,2.32871 -0.77066,10.12387 -0.60888,17.32257 0.25717,11.44305 0.51594,13.33326 2.05823,15.03495 2.22381,2.45364 5.0878,2.08596 6.65746,-0.85466 z m -11.49026,-10.17575 c 0.59229,-1.10671 1.2731,-6.77629 1.51292,-12.59909 0.43256,-10.50309 0.41808,-10.59864 -1.82961,-12.07139 -1.70331,-1.11605 -2.8345,-1.26821 -4.55766,-0.61306 -2.0532,0.78062 -2.35896,1.53784 -2.93429,7.26675 -0.78605,7.82716 0.16682,16.89888 1.96377,18.69583 1.94164,1.94165 4.60812,1.63186 5.84487,-0.67904 z m -11.83819,-6.1833 c 1.54555,-0.82714 1.7545,-1.96491 1.7545,-9.55339 0,-8.10363 -0.12101,-8.65947 -2.04089,-9.37427 -5.08962,-1.894911 -7.50806,2.46656 -6.48936,11.70307 0.86383,7.8324 2.46,9.53431 6.77575,7.22459 z"
     id="path21"
     sodipodi:nodetypes="sssscsssssssssssssssscssssssssssssssssssssscsscssscssscsssssssscsssssssssssssssssssssssscssssscsssssssssssssssssssssssscssssssssssssssssssssssscssssssssscscssssscsssssssssssssssssssssssssssssscsssssssssssscsssscsssssscssssssssssssssssssss" />
  <ellipse
     style="fill:#00b8fc;stroke-width:0.75"
     id="path22"
     cx="278.55347"
     cy="199.04367"
     rx="4.5636616"
     ry="4.3085504" />
  <path
     style="fill:#ffffff;stroke-width:0.604709"
     d="M 181.56077,378.86749 C 169.71865,374.80985 149.67714,365.02704 139.90454,358.53393 135.12878,355.36081 124.97753,344.96112 116.8921,334.95826 101.53688,315.9616 92.815741,298.70254 88.347335,278.4684 85.95158,267.61977 85.381226,260.76989 85.804613,247.93061 c 0.932244,-28.27041 3.242619,-40.37536 10.611065,-55.59548 7.767112,-16.04359 21.477232,-34.86275 33.743882,-46.31845 5.61664,-5.24532 22.90766,-16.88115 31.29769,-21.06148 9.58153,-4.774 27.52547,-10.21415 39.56234,-11.99431 l 3.27982,-0.48505 3.28821,-5.74474 c 7.33999,-12.823471 14.2652,-19.633662 25.4104,-24.988394 l 5.25725,-2.525853 13.00124,0.0019 c 12.24689,0.0018 13.20631,0.08452 16.53579,1.425548 4.59667,1.851429 12.75782,7.375045 18.83172,12.745658 l 4.82973,4.270498 h 10.71176 c 5.89147,0 12.15378,0.306541 13.91625,0.681201 6.1164,1.300209 14.56698,6.290902 22.85752,13.499042 4.4792,3.89441 7.33899,5.1409 11.83194,5.15716 8.98523,0.0325 16.96324,3.15617 25.58973,10.01918 9.51637,7.57097 15.25536,10.5542 20.30366,10.5542 6.1626,0 23.50985,12.53389 26.40469,19.07816 2.21279,5.00237 3.76232,12.98846 3.80973,19.6348 0.0428,6.00187 -0.0658,6.58693 -1.92345,10.36143 -2.44647,4.97088 -9.00591,12.17149 -12.87263,14.13091 -3.97949,2.01655 -8.03115,2.54958 -29.73455,3.91178 -29.86645,1.87456 -30.06395,1.90105 -31.29302,4.1976 -0.67884,1.26841 -1.30875,7.4272 -2.42725,23.73162 -0.75294,10.97564 -1.28476,13.01971 -3.55101,13.64851 -2.06875,0.57399 -15.62381,0.56626 -71.14403,-0.0406 -46.09003,-0.50378 -53.48196,-0.8546 -55.44528,-2.63137 -1.67279,-1.51386 -1.40566,-4.66971 0.58373,-6.89622 1.47474,-1.65052 2.22795,-1.94197 6.19827,-2.39838 2.48575,-0.28575 25.18757,-0.82783 50.4485,-1.20462 25.26094,-0.3768 49.20053,-0.8665 53.19908,-1.08824 l 7.27012,-0.40317 0.50981,-2.72119 c 0.52,-2.77549 0.14987,-16.96105 -0.53142,-20.36752 -0.29842,-1.49213 -0.75892,-1.95728 -2.22872,-2.25124 -3.00072,-0.60014 -29.29453,-1.5046 -63.31315,-2.17784 -17.4517,-0.34538 -31.95918,-0.85677 -32.23884,-1.13642 -0.6415,-0.64151 -0.74125,-3.58571 -0.18126,-5.35008 0.28162,-0.88731 1.185,-1.54396 2.65782,-1.93193 2.95883,-0.77941 29.91935,-1.7704 65.95763,-2.4244 22.84043,-0.4145 29.36418,-0.70272 29.74197,-1.31399 0.26617,-0.43068 0.6622,-2.07914 0.88008,-3.66326 0.45085,-3.27805 -0.16946,-5.60456 -3.0364,-11.38828 -5.32383,-10.74021 -5.64219,-18.38203 -0.96097,-23.06673 5.40035,-5.40437 16.69176,-5.41899 20.53149,-0.0266 4.29308,6.02908 4.67112,10.33729 1.52232,17.34859 -5.74082,12.78282 -6.82712,17.23995 -4.85807,19.9328 1.16912,1.59887 8.62963,2.07433 33.10326,2.10971 l 20.31307,0.0294 3.6245,-3.77943 c 6.22674,-6.4929 8.26232,-10.72557 8.17343,-16.99532 -0.0707,-4.98586 -2.74415,-10.29635 -7.65652,-15.20872 -5.70679,-5.70679 -10.38744,-7.58002 -21.75663,-8.70715 l -5.4104,-0.53638 -6.68377,-6.94074 c -3.67609,-3.8174 -7.63621,-7.6253 -8.80027,-8.46199 -2.69747,-1.93886 -6.35003,-2.68883 -17.07637,-3.50629 -12.67676,-0.96609 -11.8666,-0.70158 -14.9732,-4.8885 -3.38516,-4.56237 -8.00646,-8.8405 -13.56395,-12.55674 l -4.27496,-2.85862 -6.95415,0.47129 c -3.82478,0.2592 -9.4496,0.75409 -12.4996,1.09974 -9.53241,1.08029 -8.47306,1.49898 -16.03727,-6.33836 -10.15021,-10.516721 -15.63546,-13.666329 -26.0348,-14.949086 -6.77212,-0.835342 -10.07678,-0.13001 -18.01862,3.845814 -6.53194,3.269996 -11.69579,7.526952 -14.09349,11.618332 -0.83279,1.42104 -2.53246,5.53158 -3.77706,9.13454 -3.5648,10.3197 -4.51813,10.94355 -22.31735,14.60418 -5.65403,1.16282 -12.52603,2.79221 -15.27113,3.62086 -10.97694,3.31357 -31.98812,15.51536 -42.78091,24.84411 -8.5611,7.39978 -18.57306,21.09874 -26.22583,35.88375 -8.68047,16.77049 -11.15896,25.59416 -12.824277,45.65552 -0.920486,11.08872 -0.440252,27.91413 0.920217,32.24062 0.55596,1.76804 1.38082,5.31898 1.83303,7.891 1.35769,7.72217 8.54674,24.17256 14.72816,33.7018 3.40893,5.25519 11.37508,14.50911 20.96223,24.35093 10.06062,10.32785 15.37058,14.72038 22.51633,18.62607 7.288,3.98344 19.51763,9.17174 22.6597,9.61314 1.42875,0.20072 4.52909,1.00713 6.88964,1.79201 2.36056,0.7849 7.53082,1.85512 11.48947,2.37828 10.0741,1.33136 11.8488,1.89055 14.44796,4.55232 2.43157,2.49016 2.38796,3.32057 -0.30242,5.75774 -1.22858,1.11296 -2.32643,1.21457 -14.72019,1.3625 l -13.39261,0.15985 z M 347.66346,169.27618 c 1.22557,-1.22558 1.7848,-3.49859 1.31817,-5.35781 -1.13917,-4.53881 -6.85135,-4.53881 -7.99052,0 -0.82373,3.28203 1.09252,6.30716 3.99526,6.30716 0.95026,0 2.15495,-0.42721 2.67709,-0.94935 z"
     id="path23"
     transform="scale(0.75)" />
  <path
     style="fill:#ffffff;stroke-width:0.604709"
     d="m 194.25697,363.47273 c -1.25036,-0.44617 -2.72321,-1.18256 -3.27299,-1.6364 -1.6744,-1.38221 -3.22487,-5.65838 -4.51026,-12.43921 -1.98024,-10.44633 -3.96266,-12.87667 -10.50346,-12.87667 -3.3492,0 -6.12175,1.10008 -10.0616,3.9922 -5.68091,4.17017 -11.30452,5.43927 -15.42922,3.48197 -3.43534,-1.63018 -22.241,-22.39157 -25.6673,-28.33663 -2.80193,-4.8617 -2.339,-7.45231 3.02563,-16.93184 3.74349,-6.6149 4.17727,-8.5179 2.77723,-12.18384 -2.07767,-5.4403 -5.74348,-8.17353 -13.66185,-10.1863 -8.85218,-2.25014 -8.4386,-2.05779 -9.5119,-4.42385 -0.8829,-1.94633 -1.00795,-4.7477 -0.97697,-21.88507 0.049,-27.11482 0.57493,-29.01004 8.05841,-29.0393 1.96798,-0.008 4.41245,-0.47608 5.81436,-1.11406 2.78915,-1.26931 11.73545,-8.30219 12.24281,-9.62433 0.50282,-1.31035 -0.61413,-4.15842 -5.99335,-15.28216 l -4.84017,-10.00905 2.1207,-3.5969 c 3.90774,-6.6279 24.65333,-27.95873 29.23311,-30.05779 1.08467,-0.49714 2.26324,-0.0836 6.65179,2.33424 13.26169,7.3063 16.40115,8.23614 20.55519,6.088 2.95398,-1.52756 4.35659,-4.06156 5.64333,-10.1954 0.64953,-3.0963 1.83813,-7.1263 2.64132,-8.95554 0.8032,-1.82925 1.74015,-4.04027 2.08211,-4.91338 0.58069,-1.48265 0.95434,-1.61506 5.65794,-2.00507 5.20571,-0.43163 14.16519,0.37459 16.18693,1.4566 2.19145,1.17282 3.66477,3.70757 3.66145,6.29928 -0.005,3.70663 -1.56504,5.7132 -6.36055,8.17979 -3.57404,1.83832 -4.52309,2.6781 -6.21088,5.49579 -1.09571,1.82924 -2.71683,5.73339 -3.60246,8.67587 l -1.61026,5.34998 -8.18936,4.09672 c -11.07829,5.54192 -16.53099,7.47648 -19.83193,7.03616 -3.21382,-0.42869 -7.02492,-2.33124 -9.9775,-4.9809 -3.54566,-3.18189 -6.67275,-2.55158 -10.97686,2.21255 -6.48704,7.18038 -7.18674,10.67497 -3.53441,17.65239 2.14125,4.09068 2.2667,4.6375 2.25048,9.81012 -0.0155,4.92428 -0.30785,6.33182 -2.89296,13.92588 -1.58167,4.64636 -3.5593,9.61428 -4.39472,11.03982 -1.66258,2.83698 -5.48348,5.18582 -9.66039,5.93859 -1.31199,0.23645 -3.11709,0.85178 -4.01133,1.3674 -3.56085,2.05321 -6.37321,10.72853 -5.32906,16.43858 0.67991,3.71809 2.95869,5.60871 8.35387,6.93086 6.11128,1.49765 9.10424,3.58389 11.38978,7.93922 3.56618,6.79571 6.85807,18.72306 6.82886,24.74272 -0.0209,4.30344 -0.91286,7.03939 -3.84234,11.78552 -1.1931,1.93297 -2.16927,4.05141 -2.16927,4.70764 0,1.2833 5.57665,7.87083 8.91109,10.52639 3.61917,2.88234 4.98601,2.80624 11.86294,-0.66048 3.47257,-1.75055 6.94651,-3.08967 8.00409,-3.08537 2.9366,0.0119 11.05173,2.27548 15.36562,4.28594 8.03375,3.74406 10.42511,6.28877 12.98634,13.8191 2.87865,8.46356 5.02057,10.97344 11.4024,13.36118 4.0966,1.53274 5.24274,2.9811 5.23973,6.6214 -0.004,5.30348 -2.90006,7.84813 -10.29634,9.04812 -5.17473,0.83957 -8.8526,0.76983 -11.62782,-0.22048 z"
     id="path24"
     transform="scale(0.75)" />
  <path
     style="fill:#ffffff;stroke-width:0.604709"
     d="m 258.58369,182.54303 c -2.92969,-2.05203 -3.30156,-4.20795 -3.58491,-20.78343 -0.17628,-10.31169 -0.006,-17.6755 0.51464,-22.22828 l 0.77825,-6.80822 -1.92918,-2.68633 c -4.48584,-6.24642 -5.57028,-12.47037 -3.072,-17.63114 1.48026,-3.05781 6.01588,-6.23248 9.58899,-6.71173 5.14546,-0.69015 10.65749,3.90078 12.14922,10.119 1.05688,4.40559 -0.006,8.14355 -3.64965,12.83206 l -2.91717,3.75396 0.35047,20.87861 c 0.19276,11.48323 0.15656,22.16987 -0.0804,23.7481 -0.80858,5.38433 -4.63706,7.97671 -8.14821,5.5174 z m 5.70154,-59.75966 c 2.01987,-2.01986 1.97382,-4.69467 -0.10904,-6.33304 -0.87632,-0.68932 -1.97717,-1.2533 -2.44632,-1.2533 -1.41149,0 -3.82157,2.8602 -3.82157,4.53531 0,1.73408 2.42774,4.53532 3.93061,4.53532 0.52912,0 1.62996,-0.66793 2.44632,-1.48429 z"
     id="path25"
     transform="scale(0.75)" />
  <path
     style="fill:#ffffff;stroke-width:0.604709"
     d="m 244.47448,168.68121 c -2.35121,-1.27611 -3.52071,-5.67933 -3.92633,-14.78282 -0.4023,-9.02892 0.53144,-17.30374 2.13335,-18.90565 2.97489,-2.97489 8.99572,-1.0688 9.85223,3.11904 0.51034,2.49527 -0.39524,20.88761 -1.25367,25.46195 -0.43067,2.29496 -1.10384,3.74764 -2.17169,4.68649 -1.79619,1.57919 -2.39902,1.63395 -4.63389,0.42099 z"
     id="path26"
     transform="scale(0.75)" />
  <path
     style="fill:#ffffff;stroke-width:0.604709"
     d="m 228.93054,158.64855 c -1.64573,-1.76648 -2.66271,-6.9322 -2.72091,-13.82079 -0.0562,-6.65443 1.03332,-9.70477 3.88893,-10.8876 2.09062,-0.86597 5.71154,0.0882 6.31641,1.66446 0.21072,0.54913 0.38119,5.46178 0.37883,10.91701 -0.005,10.57518 -0.10678,10.98245 -3.15095,12.55666 -2.28882,1.18359 -3.29473,1.09186 -4.71231,-0.42974 z"
     id="path27"
     transform="scale(0.75)" />
  <path
     style="fill:#ffffff;stroke-width:0.604709"
     d="m 205.94647,289.60046 c -5.79119,-1.55688 -12.67152,-5.62179 -17.30699,-10.225 -13.98558,-13.88823 -15.71373,-37.29787 -4.00584,-54.26354 2.48794,-3.60523 8.43323,-9.12996 11.51909,-10.70425 3.05197,-1.557 10.93237,-3.66665 13.6964,-3.66665 1.06601,0 2.6552,0.56398 3.53153,1.2533 1.44929,1.14002 1.59332,1.6347 1.59332,5.47241 0,6.47576 -1.83408,9.03607 -8.02039,11.19615 -2.2698,0.79255 -4.19437,2.14018 -6.79498,4.758 -6.0266,6.0665 -8.69403,13.3139 -7.45472,20.25446 1.18058,6.61167 5.22356,11.58927 14.76524,18.17856 7.82974,5.40707 8.71427,6.45806 8.71427,10.35434 0,4.02661 -1.23057,6.1754 -4.22197,7.37232 -1.34987,0.54011 -2.51683,0.96411 -2.59325,0.94222 -0.0764,-0.0219 -1.61619,-0.43693 -3.42171,-0.92232 z"
     id="path28"
     transform="scale(0.75)" />
  <path
     style="fill:#ffffff;stroke-width:0.604709"
     d="m 366.39023,280.26667 c -1.74925,-0.53844 -5.37438,-3.96115 -8.58502,-8.10568 l -1.37279,-1.7721 -67.25215,-0.39908 c -71.86078,-0.42643 -70.80205,-0.37645 -71.5553,-3.37763 -0.55071,-2.19421 0.24067,-5.37347 1.65669,-6.65555 1.20574,-1.09169 3.36555,-1.15774 49.72548,-1.52061 26.65574,-0.20865 57.51215,-0.41274 68.5698,-0.45354 l 20.10483,-0.0742 2.33105,-2.10596 c 4.84666,-4.37867 10.84716,-5.635 16.31486,-3.41585 6.27814,2.54807 9.17418,6.84247 9.17418,13.60398 0,2.3475 -0.36361,4.76363 -0.85856,5.70499 -1.13003,2.14923 -5.5995,6.39213 -8.00881,7.60284 -2.41872,1.21544 -7.79158,1.72332 -10.24426,0.96837 z m 9.4828,-10.82238 c 2.38551,-2.38551 2.41219,-5.35313 0.0717,-7.97261 -4.10938,-4.59919 -12.21424,-0.61063 -10.73505,5.28293 1.1502,4.58274 7.2354,6.11765 10.66337,2.68968 z"
     id="path29"
     transform="scale(0.75)" />
  <path
     style="fill:#ffffff;stroke-width:0.604709"
     d="m 335.19607,335.70178 c -8.64804,-4.7782 -8.78499,-4.81801 -15.15097,-4.40412 -6.72439,0.43719 -9.21127,-0.26948 -11.16282,-3.172 -2.03369,-3.02471 -2.52184,-5.34997 -3.54832,-16.90222 -0.51224,-5.7649 -1.16682,-11.10098 -1.45462,-11.85795 -0.33421,-0.87905 -1.21573,-1.5148 -2.43984,-1.75962 -1.0541,-0.21082 -12.43635,-0.65136 -25.29389,-0.97897 -28.5341,-0.72704 -33.64971,-1.03527 -35.82152,-2.15836 -3.43358,-1.77557 -4.68618,-5.74152 -2.45199,-7.76343 2.24278,-2.02969 8.01487,-2.44501 33.9445,-2.44238 33.05252,0.003 42.92237,0.9709 44.20067,4.33309 0.33222,0.87381 0.83633,6.63996 1.12023,12.81368 0.64768,14.08392 1.02453,15.18327 5.47908,15.98364 3.14823,0.56566 5.72471,-0.43015 9.20207,-3.55659 4.74091,-4.2625 5.98484,-4.73722 11.43432,-4.3637 3.56956,0.24466 5.43727,0.72829 7.89137,2.04341 4.4697,2.39527 5.32936,4.31625 5.33056,11.91156 0.001,7.07882 -0.76695,9.1181 -4.41393,11.7194 -6.85574,4.89003 -8.89669,4.95714 -16.8649,0.55456 z m 11.87249,-7.78181 c 1.31604,-1.87891 1.1726,-4.07666 -0.37347,-5.72238 -3.62931,-3.86323 -9.27787,1.34202 -6.20975,5.72238 0.6982,0.99682 1.54843,1.34397 3.29161,1.34397 1.74318,0 2.59341,-0.34715 3.29161,-1.34397 z"
     id="path30"
     transform="scale(0.75)" />
  <path
     style="fill:#ffffff;stroke-width:0.604709"
     d="m 232.20818,364.97632 c -4.2675,-0.70065 -6.15246,-1.72736 -7.02102,-3.82424 -1.64746,-3.97732 2.28286,-6.86713 10.76979,-7.91861 3.10512,-0.3847 4.95005,-0.87177 4.78054,-1.26207 -0.15181,-0.34957 -0.88154,-2.03364 -1.62161,-3.74237 l -1.34559,-3.10678 1.3255,-2.1447 c 0.72902,-1.17958 2.13071,-2.50112 3.11485,-2.93675 0.98415,-0.43562 1.78936,-0.96248 1.78936,-1.17079 0,-0.2083 -3.04661,-0.71517 -6.77024,-1.12637 -10.68728,-1.18018 -14.99928,-3.05121 -14.99928,-6.50838 0,-3.46813 1.86354,-4.83616 7.71703,-5.66512 4.43386,-0.62791 20.92404,0.28561 24.186,1.33986 4.95715,1.60211 3.41343,7.05336 -2.65356,9.37037 -1.43983,0.54987 -2.49439,1.19957 -2.34346,1.44377 0.15092,0.24419 2.79859,0.59755 5.8837,0.78523 6.69529,0.4073 9.48351,1.16112 11.93997,3.22809 2.00568,1.68768 2.36718,3.83352 1.11046,6.5917 -1.0652,2.33788 -3.70354,3.40253 -9.19693,3.71124 -2.6928,0.15133 -5.52657,0.40463 -6.29728,0.56289 -1.39649,0.28678 -1.39494,0.29368 0.45354,2.02041 1.41729,1.32396 1.85481,2.25536 1.85481,3.94863 0,5.0664 -2.62138,6.45312 -12.69889,6.71778 -3.82478,0.10044 -8.31474,-0.0408 -9.97769,-0.31379 z"
     id="path31"
     transform="scale(0.75)" />
  <path
     style="fill:#ffffff;stroke-width:0.0755886"
     d="m 260.84621,388.5375 c -2.09235,-0.69551 -5.23862,-3.06923 -7.42521,-5.60197 -1.29244,-1.49705 -1.93426,-2.53394 -2.58169,-4.1708 -0.67808,-1.71437 -0.84963,-2.44247 -0.80805,-3.42954 0.0445,-1.05684 0.30276,-1.83616 1.21806,-3.67599 1.06914,-2.14904 2.21131,-3.7698 3.74882,-5.31965 1.30433,-1.3148 2.40715,-1.99279 3.89821,-2.39655 0.69079,-0.18706 0.86774,-0.20352 2.22447,-0.20694 1.27324,-0.003 1.58011,0.02 2.25334,0.17083 4.44794,0.99619 8.48698,4.13224 10.37577,8.0561 0.83833,1.74159 1.20306,3.60882 0.97697,5.00162 -0.46301,2.85237 -3.52184,6.8309 -7.06767,9.19272 -0.84735,0.56441 -2.88421,1.58402 -4.21135,2.10812 -1.25049,0.49383 -1.7708,0.54824 -2.60167,0.27205 z m 2.74781,-9.55883 c 1.15823,-0.4407 1.99769,-1.62996 2.10989,-2.98907 0.0587,-0.71143 -0.0616,-1.32422 -0.3921,-1.99715 -1.19195,-2.4268 -4.38919,-2.42338 -5.58985,0.006 -1.00139,2.02618 -0.0212,4.50706 2.0054,5.07546 0.52555,0.1474 1.33789,0.10596 1.86666,-0.0952 z"
     id="path32"
     transform="scale(0.75)" />
</svg>
